# xmcd CD database file
#
# Track frame offsets:
#	150
#	32795
#	60297
#	85515
#	113260
#	134767
#	160777
#	194055
#	225720
#	249920
#
# Disc length: 3723 seconds
#
# Revision: 0
# Processed by: cddbd v1.5.1PL0 Copyright (c) Steve Scherf et al.
# Submitted via: CDex 1.51
#
DISCID=760e890a
DTITLE=Tony Overwater - Op
DYEAR=2000
DGENRE=Jazz
TTITLE0=Laverne walks
TTITLE1=Two little pearls
TTITLE2=Tricotism
TTITLE3=Stardust
TTITLE4=Blues in the closet
TTITLE5=Bohemia after dark
TTITLE6=Gentle art of love
TTITLE7=Mr Man
TTITLE8=OP
TTITLE9=Oscar's blues
EXTD=YEAR: 2000
EXTT0=
EXTT1=
EXTT2=
EXTT3=
EXTT4=
EXTT5=
EXTT6=
EXTT7=
EXTT8=
EXTT9=
PLAYORDER=
